<svg width="65" height="65" viewBox="0 0 65 65" fill="none" xmlns="http://www.w3.org/2000/svg">
<rect x="0.5" y="0.5" width="64" height="64" rx="3.5" fill="white" stroke="#DADCE0"/>
<path d="M49.6608 27.236L45.2302 23.6424L45.2046 16.4796C45.0848 15.169 44.1152 14.1487 42.7812 14.0551C40.511 13.8962 38.0519 14.1754 35.7622 14.0629C35.7276 14.0701 35.6942 14.079 35.6624 14.0891C31.1733 14.0662 23.9437 13.923 22.2697 14.0556C21.0082 14.1559 20.0302 15.1907 19.9048 16.4272L19.8948 23.6056L15.1672 27.5152C15.1298 27.5676 15.0084 27.7537 15 27.7938V47.9658C15 48.9488 16.3218 50.1647 17.3137 50.1658L47.74 50.1692C48.9665 50.0644 49.9316 49.1204 50.1055 47.9096L50.1089 27.9582C50.1111 27.6367 49.8665 27.4383 49.6608 27.236ZM45.2024 25.8156L47.9284 28.0646L45.2024 30.1063V25.8156ZM22.3823 15.7285L35.7332 15.719C35.7421 15.7218 35.751 15.724 35.7605 15.7262L42.7238 15.7285C43.2225 15.8243 43.4883 16.1447 43.5329 16.6468L43.5189 31.4041L32.6238 39.7382L32.4438 39.7182L21.7158 31.554L21.5771 31.3585L21.5732 16.6468C21.6178 16.1453 21.883 15.8243 22.3823 15.7285ZM19.9037 25.8156V30.1063L17.1777 28.0646L19.9037 25.8156ZM16.6717 47.1578V29.8834L26.5349 37.3243L16.6717 47.1578ZM17.8419 48.4952L27.8984 38.4103L28.0589 38.4733C29.3868 39.3364 30.6506 40.6437 31.9785 41.4634C32.3379 41.6852 32.5904 41.7593 32.996 41.5548L37.1631 38.4159L37.2873 38.4354L47.2641 48.4952H17.8419ZM48.4343 47.1578L38.5712 37.3243L48.4343 29.8834V47.1578Z" fill="#E0822D" stroke="#E0822D" stroke-width="0.8"/>
<path d="M31.8175 19.424C37.5163 18.8935 41.3802 25.0783 38.2263 29.9007C35.3364 34.319 28.6691 33.8409 26.4145 29.0843C24.4435 24.9273 27.2208 19.852 31.8175 19.424ZM36.1439 22.5585C33.5588 19.9896 29.2608 20.8795 27.846 24.2012C25.9876 28.5644 30.6824 32.8925 34.9112 30.7092C37.9683 29.1306 38.594 24.9931 36.1439 22.5585Z" fill="#E0822D" stroke="#E0822D" stroke-width="0.8"/>
<path d="M31.4073 25.5692C31.6369 25.7687 31.8693 26.0117 32.0621 26.2474L32.1864 26.263L34.1205 24.2915C34.9675 23.5988 36.0413 24.5584 35.3125 25.4817C34.8466 26.0724 33.3404 27.5742 32.7497 28.0456C32.4583 28.2785 32.1908 28.3877 31.818 28.2501C31.6013 28.1704 30.304 26.8754 30.1006 26.6246C29.7261 26.1627 29.7089 25.5458 30.2856 25.2471C30.8022 24.9797 31.0535 25.2616 31.4073 25.5692Z" fill="#E0822D" stroke="#E0822D" stroke-width="0.8"/>
</svg>
