<svg width="65" height="65" viewBox="0 0 65 65" fill="none" xmlns="http://www.w3.org/2000/svg">
<rect x="0.5" y="0.5" width="64" height="64" rx="3.5" fill="white" stroke="#DADCE0"/>
<path d="M17.2394 23.5488V18.1584C17.2394 17.6202 17.8976 17.0017 18.4379 17H52.7475C53.4175 17.0703 53.8902 17.5735 53.9478 18.2439V43.519C53.7645 46.1139 51.6817 48.2395 49.0816 48.4293H15.6009C13.663 48.2595 12.1392 46.6769 12 44.7412L12.0022 24.7491C11.9817 24.279 12.6132 23.5484 13.0711 23.5484H17.2394V23.5488ZM19.6836 45.8088H48.9926C50.137 45.8088 51.3277 44.416 51.3277 43.2991V19.686L51.2622 19.6206H19.9237L19.856 19.7711L19.86 44.8721L19.6836 45.8088ZM17.2394 26.1676H14.686L14.6206 26.2331V44.5648C14.6206 45.7315 16.3115 46.2898 17.0142 45.2562C17.05 45.2038 17.2394 44.8136 17.2394 44.7831V26.1676Z" fill="#E0822D"/>
<path d="M24.7798 23.5602L33.0191 23.5471C33.707 23.6064 34.167 24.1677 34.2194 24.8346C34.3542 26.5452 34.1159 28.4312 34.2172 30.1605C34.1312 30.8461 33.6834 31.3455 32.9754 31.4066H24.9413C24.2299 31.3455 23.7681 30.8112 23.6996 30.1168C23.81 28.4133 23.549 26.5181 23.6996 24.8368C23.7568 24.1987 24.1474 23.6972 24.7794 23.5597L24.7798 23.5602Z" fill="#E0822D"/>
<path d="M24.2561 34.035L46.8535 34.0241C48.4103 34.2257 48.4514 36.3889 46.8971 36.642H24.2888C22.7856 36.4129 22.7642 34.2977 24.2561 34.035Z" fill="#E0822D"/>
<path d="M24.2561 39.2726L46.8535 39.2617C48.406 39.4607 48.457 41.6287 46.8971 41.8797H24.2888C22.7843 41.651 22.7682 39.5376 24.2561 39.2726Z" fill="#E0822D"/>
<path d="M37.9612 23.5601L46.9364 23.5536C48.4413 23.8399 48.399 25.9306 46.8927 26.1628H38.042C36.5768 25.9433 36.5235 23.8722 37.9612 23.5601Z" fill="#E0822D"/>
<path d="M37.9612 28.7978L46.9364 28.7912C48.4348 29.0832 48.3999 31.1643 46.8927 31.4005H38.042C36.5833 31.1582 36.5196 29.1234 37.9612 28.7978Z" fill="#E0822D"/>
</svg>
